<svg width="77" height="98" viewBox="0 0 77 98" fill="none" xmlns="http://www.w3.org/2000/svg">
<rect x="5.5" y="52.582" width="16" height="28" rx="8" fill="#2EC4B6" stroke="#2EC4B6"/>
<path d="M0.512932 87.582H76.4871C76.2271 92.5963 72.079 96.582 67 96.582H10C4.92101 96.582 0.772938 92.5963 0.512932 87.582Z" fill="#2EC4B6" stroke="#2EC4B6"/>
<rect x="30.5" y="38.582" width="16" height="42" rx="8" fill="#2EC4B6" stroke="#2EC4B6"/>
<rect x="55.5" y="26.582" width="16" height="54" rx="8" fill="#2EC4B6" stroke="#2EC4B6"/>
<path d="M45.8338 28.743L46.6827 29.2715L46.6827 29.2715L45.8338 28.743ZM62.474 3.35552C62.3489 2.81759 61.8114 2.48292 61.2735 2.60802L52.5074 4.64664C51.9695 4.77174 51.6348 5.30924 51.7599 5.84717C51.885 6.3851 52.4225 6.71976 52.9604 6.59466L60.7525 4.78255L62.5646 12.5746C62.6897 13.1125 63.2272 13.4472 63.7651 13.3221C64.3031 13.197 64.6377 12.6595 64.5126 12.1216L62.474 3.35552ZM23.1254 24.1177L23.8895 24.7629L23.8895 24.7629L23.1254 24.1177ZM25.286 23.5107L25.6022 22.562L25.6022 22.562L25.286 23.5107ZM43.5035 29.5832L43.8197 28.6345L43.8197 28.6345L43.5035 29.5832ZM46.6827 29.2715L62.3489 4.11059L60.6511 3.05347L44.9849 28.2144L46.6827 29.2715ZM5.76403 46.2272L23.8895 24.7629L22.3614 23.4725L4.23597 44.9369L5.76403 46.2272ZM24.9697 24.4594L43.1873 30.5319L43.8197 28.6345L25.6022 22.562L24.9697 24.4594ZM23.8895 24.7629C24.1535 24.4502 24.5815 24.3299 24.9697 24.4594L25.6022 22.562C24.4374 22.1737 23.1536 22.5344 22.3614 23.4725L23.8895 24.7629ZM44.9849 28.2144C44.7404 28.607 44.2585 28.7808 43.8197 28.6345L43.1873 30.5319C44.5037 30.9707 45.9492 30.4494 46.6827 29.2715L44.9849 28.2144Z" fill="#2EC4B6"/>
</svg>
